<svg width="61" height="177" viewBox="0 0 61 177" fill="none" xmlns="http://www.w3.org/2000/svg">
<path d="M-25.595 172.025C20.9708 172.025 58.7384 134.546 58.7384 88.2893C58.7384 42.0329 20.9708 4.55322 -25.595 4.55322C-72.1609 4.55322 -109.928 42.0329 -109.928 88.2893C-109.928 134.546 -72.1609 172.025 -25.595 172.025Z" fill="url(#paint0_linear_5681_167317)" stroke="white" stroke-width="3"/>
<path fill-rule="evenodd" clip-rule="evenodd" d="M-25.595 163.88C16.4558 163.88 50.5448 130.037 50.5448 88.2893C50.5448 46.5417 16.4558 12.6986 -25.595 12.6986C-67.6459 12.6986 -101.735 46.5417 -101.735 88.2893C-101.735 130.037 -67.6459 163.88 -25.595 163.88ZM-25.595 170.525C20.1526 170.525 57.2384 133.707 57.2384 88.2893C57.2384 42.8716 20.1526 6.05322 -25.595 6.05322C-71.3427 6.05322 -108.428 42.8716 -108.428 88.2893C-108.428 133.707 -71.3427 170.525 -25.595 170.525Z" fill="#C19444"/>
<path d="M-73.2874 88.289C-73.2874 62.1394 -51.9349 40.9409 -25.5954 40.9409C0.744179 40.9409 22.0966 62.1394 22.0966 88.289C22.0966 114.439 0.744179 135.637 -25.5954 135.637C-51.9349 135.637 -73.2874 114.439 -73.2874 88.289Z" fill="url(#paint1_linear_5681_167317)"/>
<path fill-rule="evenodd" clip-rule="evenodd" d="M-68.2671 88.289C-68.2671 111.686 -49.1623 130.653 -25.5954 130.653C-2.02841 130.653 17.0764 111.686 17.0764 88.289C17.0764 64.892 -2.02841 45.9249 -25.5954 45.9249C-49.1623 45.9249 -68.2671 64.892 -68.2671 88.289ZM-25.5954 40.9409C-51.9349 40.9409 -73.2874 62.1394 -73.2874 88.289C-73.2874 114.439 -51.9349 135.637 -25.5954 135.637C0.744179 135.637 22.0966 114.439 22.0966 88.289C22.0966 62.1394 0.744179 40.9409 -25.5954 40.9409Z" fill="#C19444"/>
<defs>
<linearGradient id="paint0_linear_5681_167317" x1="-72.271" y1="23.6752" x2="20.8668" y2="149.242" gradientUnits="userSpaceOnUse">
<stop stop-color="#FFD85F"/>
<stop offset="1" stop-color="#FFEEB8"/>
</linearGradient>
<linearGradient id="paint1_linear_5681_167317" x1="-52.023" y1="56.6999" x2="1.02855" y2="121.691" gradientUnits="userSpaceOnUse">
<stop stop-color="#FFD960"/>
<stop offset="1" stop-color="#FFEFBB"/>
</linearGradient>
</defs>
</svg>
