<svg width="643" height="93" viewBox="0 0 643 93" fill="none" xmlns="http://www.w3.org/2000/svg">
<path d="M641.658 46.3761C626.945 31.0037 582.014 0.408792 519.989 1.00869C457.965 1.60859 118.467 1.25863 38.8893 1.00867C26.7352 0.883689 2.27344 6.55774 1.65936 30.2538C1.51965 35.6445 1.4303 39.7015 1.37854 42.7055C1.33148 42.9932 1.30731 44.0969 1.32739 46.4887C1.30731 48.8806 1.33148 49.9843 1.37854 50.2719C1.4303 53.276 1.51965 57.3329 1.65936 62.7237C2.27343 86.4197 26.7352 92.0938 38.8893 91.9688C118.467 91.7188 457.965 91.3689 519.989 91.9688C582.014 92.5687 626.945 61.9738 641.658 46.6014L641.658 46.3761Z" fill="#D9F1F1" stroke="black"/>
<path d="M632.447 46.2738C618.172 32.3361 574.578 4.59678 514.401 5.14069C454.223 5.6846 119.924 5.3673 42.7162 5.14067C30.924 5.02736 7.19049 10.1718 6.59466 31.6562C6.45911 36.5438 6.37243 40.2222 6.32226 42.9458C6.27655 43.2066 6.25311 44.2073 6.27258 46.3759C6.25311 48.5445 6.27655 49.5452 6.32226 49.806C6.37243 52.5297 6.4591 56.208 6.59466 61.0956C7.19049 82.58 30.924 87.7245 42.7162 87.6112C119.924 87.3845 454.223 87.0673 514.401 87.6112C574.578 88.1551 618.172 60.4157 632.447 46.4781L632.447 46.2738Z" fill="#EDFFFF" stroke="black"/>
<path d="M81.3125 5.24193C66.9288 5.2083 53.8613 5.17369 42.716 5.14098C30.9238 5.02766 7.19028 10.1721 6.59446 31.6565C6.45892 36.5441 6.37224 40.2225 6.32206 42.9461C6.27638 43.2069 6.25295 44.2076 6.2724 46.3762C6.25295 48.5448 6.27638 49.5456 6.32206 49.8063C6.37224 52.53 6.45892 56.2083 6.59446 61.0959C7.19028 82.5803 30.9238 87.7248 42.716 87.6115C53.8612 87.5787 66.9288 87.5441 81.3125 87.5105C72.3834 83.9074 60.2464 72.5734 60.7671 46.3762C60.2464 20.179 72.3834 8.84499 81.3125 5.24193Z" fill="#C1DDDE" stroke="black"/>
<path d="M35.0508 87.2247L35.0508 5.88281C22.8337 7.70994 7.0777 14.3795 6.59364 31.8341C6.4581 36.7217 6.37142 40.4 6.32124 43.1237C6.27556 43.3844 6.25213 44.3851 6.27158 46.5537C6.25213 48.7223 6.27556 49.7231 6.32124 49.9839C6.37142 52.7075 6.45809 56.3858 6.59364 61.2734C7.0777 78.728 22.8337 85.3975 35.0508 87.2247Z" fill="#EDFFFF" stroke="black"/>
<rect x="128.318" y="8.88232" width="11.2481" height="3.83814" transform="rotate(90 128.318 8.88232)" fill="#4F403B"/>
<rect x="128.318" y="21.6304" width="11.2481" height="3.83814" transform="rotate(90 128.318 21.6304)" fill="#4F403B"/>
<rect x="128.318" y="34.3779" width="11.2481" height="3.83814" transform="rotate(90 128.318 34.3779)" fill="#4F403B"/>
<rect x="128.318" y="59.874" width="11.2481" height="3.83814" transform="rotate(90 128.318 59.874)" fill="#4F403B"/>
<rect x="128.318" y="47.126" width="11.2481" height="3.83814" transform="rotate(90 128.318 47.126)" fill="#4F403B"/>
<rect x="128.318" y="72.6216" width="11.2481" height="3.83814" transform="rotate(90 128.318 72.6216)" fill="#4F403B"/>
<rect x="122.945" y="8.88232" width="11.2481" height="3.83814" transform="rotate(90 122.945 8.88232)" fill="#4F403B"/>
<rect x="122.945" y="21.6304" width="11.2481" height="3.83814" transform="rotate(90 122.945 21.6304)" fill="#4F403B"/>
<rect x="122.945" y="34.3779" width="11.2481" height="3.83814" transform="rotate(90 122.945 34.3779)" fill="#4F403B"/>
<rect x="122.945" y="59.874" width="11.2481" height="3.83814" transform="rotate(90 122.945 59.874)" fill="#4F403B"/>
<rect x="122.945" y="47.126" width="11.2481" height="3.83814" transform="rotate(90 122.945 47.126)" fill="#4F403B"/>
<rect x="122.945" y="72.6216" width="11.2481" height="3.83814" transform="rotate(90 122.945 72.6216)" fill="#4F403B"/>
<rect x="117.572" y="8.88232" width="11.2481" height="3.83814" transform="rotate(90 117.572 8.88232)" fill="#4F403B"/>
<rect x="117.572" y="21.6304" width="11.2481" height="3.83814" transform="rotate(90 117.572 21.6304)" fill="#4F403B"/>
<rect x="117.572" y="34.3779" width="11.2481" height="3.83814" transform="rotate(90 117.572 34.3779)" fill="#4F403B"/>
<rect x="117.572" y="59.874" width="11.2481" height="3.83814" transform="rotate(90 117.572 59.874)" fill="#4F403B"/>
<rect x="117.572" y="47.126" width="11.2481" height="3.83814" transform="rotate(90 117.572 47.126)" fill="#4F403B"/>
<rect x="117.572" y="72.6216" width="11.2481" height="3.83814" transform="rotate(90 117.572 72.6216)" fill="#4F403B"/>
<rect x="212.238" y="48.4775" width="30" height="74.7519" transform="rotate(90 212.238 48.4775)" fill="#C2E0E0" stroke="black"/>
<rect x="212.238" y="15.4775" width="30" height="74.7519" transform="rotate(90 212.238 15.4775)" fill="#C2E0E0" stroke="black"/>
<rect x="535.719" y="48.4775" width="29" height="73.7282" transform="rotate(90 535.719 48.4775)" fill="#C2E0E0" stroke="black"/>
<rect x="535.719" y="16.4775" width="29" height="73.7282" transform="rotate(90 535.719 16.4775)" fill="#C2E0E0" stroke="black"/>
<rect x="336.104" y="82.4775" width="30.7339" height="72" transform="rotate(-180 336.104 82.4775)" fill="#C2E0E0" stroke="black"/>
<rect x="370.908" y="82.4775" width="30.7339" height="72" transform="rotate(-180 370.908 82.4775)" fill="#C2E0E0" stroke="black"/>
<rect x="295.16" y="5.63281" width="81.4862" height="74.2275" transform="rotate(90 295.16 5.63281)" fill="#62858B" stroke="black"/>
<rect x="233.75" y="9.38232" width="73.9875" height="4.37339" transform="rotate(90 233.75 9.38232)" fill="#C2E0E0" stroke="black"/>
<rect x="245.266" y="9.38232" width="73.9875" height="5.14102" transform="rotate(90 245.266 9.38232)" fill="#C2E0E0" stroke="black"/>
<rect x="259.85" y="9.38232" width="73.9875" height="4.37339" transform="rotate(90 259.85 9.38232)" fill="#C2E0E0" stroke="black"/>
<rect x="453.826" y="5.63281" width="81.4862" height="74.2275" transform="rotate(90 453.826 5.63281)" fill="#62858B" stroke="black"/>
<rect x="392.416" y="9.38232" width="73.9875" height="4.37339" transform="rotate(90 392.416 9.38232)" fill="#C2E0E0" stroke="black"/>
<rect x="403.93" y="9.38232" width="73.9875" height="5.14102" transform="rotate(90 403.93 9.38232)" fill="#C2E0E0" stroke="black"/>
<rect x="418.516" y="9.38232" width="73.9875" height="4.37339" transform="rotate(90 418.516 9.38232)" fill="#C2E0E0" stroke="black"/>
<path d="M111.43 78.6206L92.4953 78.6206C88.7769 78.6206 84.9551 78.0776 82.0064 75.8122C76.1547 71.3167 70.4398 62.3881 70.7581 46.376C70.4398 30.3639 76.1547 21.4352 82.0064 16.9397C84.9551 14.6744 88.7769 14.1313 92.4953 14.1313L111.43 14.1313" stroke="#62858B" stroke-width="3"/>
<path d="M19.6981 38.3775C18.4793 38.3775 17.5114 37.4154 17.5114 36.253C17.5114 35.0906 18.4793 34.1284 19.6981 34.1284C20.9168 34.1284 21.8848 35.0906 21.8848 36.253C21.8848 37.4154 20.9168 38.3775 19.6981 38.3775Z" fill="#64878D" stroke="black"/>
<path d="M19.6981 58.6241C18.4793 58.6241 17.5114 57.662 17.5114 56.4996C17.5114 55.3372 18.4793 54.375 19.6981 54.375C20.9168 54.375 21.8848 55.3372 21.8848 56.4996C21.8848 57.662 20.9168 58.6241 19.6981 58.6241Z" fill="#64878D" stroke="black"/>
<path fill-rule="evenodd" clip-rule="evenodd" d="M570.514 79.7222C601.298 70.5692 623.125 55.5806 632.447 46.4784L632.447 46.2741C623.125 37.1719 601.298 22.1833 570.514 13.0303L570.514 79.7222Z" fill="#C2E0E0"/>
<path d="M570.514 79.7222L570.014 79.7222L570.014 80.3925L570.656 80.2015L570.514 79.7222ZM632.447 46.4784L632.797 46.8361L632.947 46.689L632.947 46.4784L632.447 46.4784ZM632.447 46.2741L632.947 46.2741L632.947 46.0635L632.797 45.9164L632.447 46.2741ZM570.514 13.0303L570.656 12.551L570.014 12.36L570.014 13.0303L570.514 13.0303ZM570.656 80.2015C601.512 71.0271 623.412 55.9992 632.797 46.8361L632.098 46.1206C622.838 55.162 601.083 70.1113 570.371 79.243L570.656 80.2015ZM632.947 46.4784L632.947 46.2741L631.947 46.2741L631.947 46.4784L632.947 46.4784ZM632.797 45.9164C623.412 36.7533 601.512 21.7254 570.656 12.551L570.371 13.5095C601.083 22.6412 622.838 37.5905 632.098 46.6319L632.797 45.9164ZM570.014 13.0303L570.014 79.7222L571.014 79.7222L571.014 13.0303L570.014 13.0303Z" fill="black"/>
</svg>
