<svg width="643" height="93" viewBox="0 0 643 93" fill="none" xmlns="http://www.w3.org/2000/svg">
<path d="M1.32031 46.2816C16.0332 61.654 60.965 92.2489 122.989 91.649C185.014 91.0491 524.512 91.3991 604.089 91.649C616.243 91.774 640.705 86.0999 641.319 62.4039C641.459 57.0132 641.548 52.9562 641.6 49.9521C641.647 49.6645 641.671 48.5608 641.651 46.169C641.671 43.7771 641.647 42.6734 641.6 42.3857C641.548 39.3817 641.459 35.3247 641.319 29.934C640.705 6.23797 616.243 0.563904 604.089 0.688889C524.512 0.938843 185.014 1.28879 122.989 0.688889C60.965 0.0889893 16.0332 30.6839 1.32031 46.0563V46.2816Z" fill="#D9F1F1" stroke="black"/>
<path d="M10.5313 46.3839C24.8061 60.3216 68.4002 88.0609 128.578 87.517C188.756 86.9731 523.054 87.2904 600.262 87.517C612.055 87.6303 635.788 82.4859 636.384 61.0015C636.519 56.1139 636.606 52.4355 636.656 49.7119C636.702 49.4511 636.725 48.4504 636.706 46.2818C636.725 44.1132 636.702 43.1124 636.656 42.8517C636.606 40.128 636.519 36.4497 636.384 31.5621C635.788 10.0777 612.055 4.93321 600.262 5.04653C523.054 5.27316 188.756 5.59044 128.578 5.04653C68.4002 4.50262 24.8061 32.242 10.5313 46.1796V46.3839Z" fill="#EDFFFF" stroke="black"/>
<path d="M561.666 87.4158C576.05 87.4494 589.117 87.484 600.262 87.5167C612.055 87.6301 635.788 82.4856 636.384 61.0012C636.52 56.1136 636.606 52.4352 636.656 49.7116C636.702 49.4508 636.726 48.4501 636.706 46.2815C636.726 44.1129 636.702 43.1122 636.656 42.8514C636.606 40.1277 636.52 36.4494 636.384 31.5618C635.788 10.0774 612.055 4.93294 600.262 5.04626C589.117 5.07897 576.05 5.11357 561.666 5.1472C570.595 8.75026 582.732 20.0843 582.211 46.2815C582.732 72.4787 570.595 83.8127 561.666 87.4158Z" fill="#C1DDDE" stroke="black"/>
<path d="M607.928 5.43304V86.7749C620.145 84.9478 635.901 78.2783 636.385 60.8236C636.52 55.936 636.607 52.2577 636.657 49.5341C636.703 49.2733 636.726 48.2726 636.707 46.104C636.726 43.9354 636.703 42.9346 636.657 42.6739C636.607 39.9502 636.52 36.2719 636.385 31.3843C635.901 13.9297 620.145 7.26016 607.928 5.43304Z" fill="#EDFFFF" stroke="black"/>
<rect x="514.66" y="83.7754" width="11.2481" height="3.83814" transform="rotate(-90 514.66 83.7754)" fill="#4F403B"/>
<rect x="514.66" y="71.0273" width="11.2481" height="3.83814" transform="rotate(-90 514.66 71.0273)" fill="#4F403B"/>
<rect x="514.66" y="58.2798" width="11.2481" height="3.83814" transform="rotate(-90 514.66 58.2798)" fill="#4F403B"/>
<rect x="514.66" y="32.7837" width="11.2481" height="3.83814" transform="rotate(-90 514.66 32.7837)" fill="#4F403B"/>
<rect x="514.66" y="45.5317" width="11.2481" height="3.83814" transform="rotate(-90 514.66 45.5317)" fill="#4F403B"/>
<rect x="514.66" y="20.0361" width="11.2481" height="3.83814" transform="rotate(-90 514.66 20.0361)" fill="#4F403B"/>
<rect x="520.033" y="83.7754" width="11.2481" height="3.83814" transform="rotate(-90 520.033 83.7754)" fill="#4F403B"/>
<rect x="520.033" y="71.0273" width="11.2481" height="3.83814" transform="rotate(-90 520.033 71.0273)" fill="#4F403B"/>
<rect x="520.033" y="58.2798" width="11.2481" height="3.83814" transform="rotate(-90 520.033 58.2798)" fill="#4F403B"/>
<rect x="520.033" y="32.7837" width="11.2481" height="3.83814" transform="rotate(-90 520.033 32.7837)" fill="#4F403B"/>
<rect x="520.033" y="45.5317" width="11.2481" height="3.83814" transform="rotate(-90 520.033 45.5317)" fill="#4F403B"/>
<rect x="520.033" y="20.0361" width="11.2481" height="3.83814" transform="rotate(-90 520.033 20.0361)" fill="#4F403B"/>
<rect x="525.406" y="83.7754" width="11.2481" height="3.83814" transform="rotate(-90 525.406 83.7754)" fill="#4F403B"/>
<rect x="525.406" y="71.0273" width="11.2481" height="3.83814" transform="rotate(-90 525.406 71.0273)" fill="#4F403B"/>
<rect x="525.406" y="58.2798" width="11.2481" height="3.83814" transform="rotate(-90 525.406 58.2798)" fill="#4F403B"/>
<rect x="525.406" y="32.7837" width="11.2481" height="3.83814" transform="rotate(-90 525.406 32.7837)" fill="#4F403B"/>
<rect x="525.406" y="45.5317" width="11.2481" height="3.83814" transform="rotate(-90 525.406 45.5317)" fill="#4F403B"/>
<rect x="525.406" y="20.0361" width="11.2481" height="3.83814" transform="rotate(-90 525.406 20.0361)" fill="#4F403B"/>
<rect x="430.74" y="44.1802" width="30" height="74.7519" transform="rotate(-90 430.74 44.1802)" fill="#C2E0E0" stroke="black"/>
<rect x="430.74" y="77.1802" width="30" height="74.7519" transform="rotate(-90 430.74 77.1802)" fill="#C2E0E0" stroke="black"/>
<rect x="107.26" y="44.1802" width="29" height="73.7282" transform="rotate(-90 107.26 44.1802)" fill="#C2E0E0" stroke="black"/>
<rect x="107.26" y="76.1802" width="29" height="73.7282" transform="rotate(-90 107.26 76.1802)" fill="#C2E0E0" stroke="black"/>
<rect x="306.875" y="10.1802" width="30.7339" height="72" fill="#C2E0E0" stroke="black"/>
<rect x="272.07" y="10.1802" width="30.7339" height="72" fill="#C2E0E0" stroke="black"/>
<rect x="347.818" y="87.0249" width="81.4862" height="74.2275" transform="rotate(-90 347.818 87.0249)" fill="#62858B" stroke="black"/>
<rect x="409.229" y="83.2754" width="73.9875" height="4.37339" transform="rotate(-90 409.229 83.2754)" fill="#C2E0E0" stroke="black"/>
<rect x="397.713" y="83.2754" width="73.9875" height="5.14102" transform="rotate(-90 397.713 83.2754)" fill="#C2E0E0" stroke="black"/>
<rect x="383.129" y="83.2754" width="73.9875" height="4.37339" transform="rotate(-90 383.129 83.2754)" fill="#C2E0E0" stroke="black"/>
<rect x="189.152" y="87.0249" width="81.4862" height="74.2275" transform="rotate(-90 189.152 87.0249)" fill="#62858B" stroke="black"/>
<rect x="250.562" y="83.2754" width="73.9875" height="4.37339" transform="rotate(-90 250.562 83.2754)" fill="#C2E0E0" stroke="black"/>
<rect x="239.049" y="83.2754" width="73.9875" height="5.14102" transform="rotate(-90 239.049 83.2754)" fill="#C2E0E0" stroke="black"/>
<rect x="224.463" y="83.2754" width="73.9875" height="4.37339" transform="rotate(-90 224.463 83.2754)" fill="#C2E0E0" stroke="black"/>
<path d="M531.549 14.0371H550.483C554.202 14.0371 558.023 14.5801 560.972 16.8455C566.824 21.341 572.539 30.2697 572.22 46.2817C572.539 62.2938 566.824 71.2225 560.972 75.718C558.023 77.9834 554.202 78.5264 550.483 78.5264H531.549" stroke="#62858B" stroke-width="3"/>
<path d="M623.28 54.2802C624.499 54.2802 625.467 55.2423 625.467 56.4047C625.467 57.5671 624.499 58.5293 623.28 58.5293C622.062 58.5293 621.094 57.5671 621.094 56.4047C621.094 55.2423 622.062 54.2802 623.28 54.2802Z" fill="#64878D" stroke="black"/>
<path d="M623.28 34.0336C624.499 34.0336 625.467 34.9958 625.467 36.1582C625.467 37.3206 624.499 38.2827 623.28 38.2827C622.062 38.2827 621.094 37.3206 621.094 36.1582C621.094 34.9958 622.062 34.0336 623.28 34.0336Z" fill="#64878D" stroke="black"/>
<path fill-rule="evenodd" clip-rule="evenodd" d="M72.465 12.9355C41.6807 22.0885 19.8537 37.0771 10.5313 46.1793L10.5313 46.3836C19.8537 55.4858 41.6807 70.4744 72.465 79.6274V12.9355Z" fill="#C2E0E0"/>
<path d="M72.465 12.9355H72.965V12.2652L72.3225 12.4562L72.465 12.9355ZM10.5313 46.1793L10.1819 45.8216L10.0313 45.9687L10.0313 46.1793L10.5313 46.1793ZM10.5313 46.3836L10.0313 46.3836L10.0312 46.5942L10.1819 46.7413L10.5313 46.3836ZM72.465 79.6274L72.3225 80.1067L72.965 80.2977V79.6274H72.465ZM72.3225 12.4562C41.4663 21.6306 19.5667 36.6585 10.1819 45.8216L10.8806 46.5371C20.1407 37.4957 41.8951 22.5464 72.6075 13.4147L72.3225 12.4562ZM10.0313 46.1793L10.0313 46.3836L11.0313 46.3836L11.0313 46.1793L10.0313 46.1793ZM10.1819 46.7413C19.5667 55.9044 41.4663 70.9323 72.3225 80.1067L72.6075 79.1482C41.8951 70.0165 20.1407 55.0673 10.8806 46.0258L10.1819 46.7413ZM72.965 79.6274V12.9355H71.965V79.6274H72.965Z" fill="black"/>
</svg>
