<svg width="25" height="28" viewBox="0 0 25 28" fill="none" xmlns="http://www.w3.org/2000/svg">
<path d="M23.5055 14.5598C23.224 14.5598 22.9486 14.4621 22.6793 14.2666C22.4091 14.072 22.2388 13.8255 22.1684 13.5272C22.0511 13.0912 21.9047 12.6607 21.7293 12.2358C21.5529 11.8117 21.3474 11.4046 21.1128 11.0145C20.9486 10.7621 20.8899 10.4808 20.9368 10.1705C20.9837 9.86122 21.1128 9.6033 21.3239 9.39677C21.6758 9.07552 22.0802 8.93784 22.5372 8.98373C22.9951 9.02962 23.3413 9.24762 23.5759 9.63772C23.8809 10.1426 24.1507 10.6589 24.3852 11.1866C24.6198 11.7144 24.8075 12.2651 24.9483 12.8388C25.0655 13.2978 24.9778 13.6993 24.685 14.0435C24.3913 14.3877 23.9982 14.5598 23.5055 14.5598ZM14.0752 26.5381C14.0752 26.2628 14.1751 25.9934 14.375 25.73C14.5739 25.4656 14.8259 25.299 15.1308 25.2302C15.5765 25.1154 16.0166 24.9722 16.4511 24.8006C16.8846 24.628 17.3007 24.427 17.6995 24.1976C17.9576 24.0369 18.2452 23.9796 18.5623 24.0255C18.8786 24.0713 19.1422 24.1976 19.3534 24.4041C19.6818 24.7483 19.8225 25.1439 19.7756 25.5909C19.7287 26.0388 19.5059 26.3775 19.1071 26.607C18.5675 26.9053 18.028 27.1637 17.4884 27.3821C16.9489 27.5997 16.3976 27.7888 15.8346 27.9494C15.3654 28.0641 14.9549 27.9838 14.603 27.7084C14.2511 27.4331 14.0752 27.043 14.0752 26.5381ZM21.3239 22.4765C21.1128 22.293 20.9837 22.0405 20.9368 21.7193C20.8899 21.398 20.9486 21.1112 21.1128 20.8588C21.3474 20.4687 21.5529 20.0616 21.7293 19.6375C21.9047 19.2126 22.0511 18.7821 22.1684 18.3461C22.2388 18.0478 22.403 17.8009 22.661 17.6054C22.9191 17.4108 23.2006 17.3135 23.5055 17.3135C24.0216 17.3135 24.4204 17.4856 24.7019 17.8298C24.9834 18.174 25.0655 18.5756 24.9483 19.0345C24.784 19.5852 24.5907 20.1245 24.3684 20.6523C24.145 21.18 23.8809 21.7078 23.5759 22.2356C23.3413 22.6257 22.9951 22.8437 22.5372 22.8896C22.0802 22.9355 21.6758 22.7978 21.3239 22.4765ZM9.53593 27.915C6.74436 27.1807 4.45714 25.7121 2.67428 23.5091C0.891428 21.3062 0 18.7821 0 15.9367C0 12.4946 1.23158 9.56888 3.69473 7.15945C6.15789 4.75002 9.14887 3.5453 12.6677 3.5453H12.8788L11.6472 2.34059C11.3892 2.08817 11.2601 1.76691 11.2601 1.37682C11.2601 0.986719 11.4009 0.653988 11.6824 0.378625C11.9404 0.126208 12.2689 0 12.6677 0C13.0665 0 13.4066 0.126208 13.6881 0.378625L17.3125 3.95835C17.4532 4.09603 17.5527 4.24519 17.6109 4.40581C17.67 4.56644 17.6995 4.73854 17.6995 4.92212C17.6995 5.1057 17.67 5.2778 17.6109 5.43843C17.5527 5.59906 17.4532 5.74821 17.3125 5.88589L13.6529 9.46562C13.3949 9.71803 13.0665 9.84424 12.6677 9.84424C12.2689 9.84424 11.9404 9.71803 11.6824 9.46562C11.4244 9.2132 11.2953 8.89194 11.2953 8.50184C11.2953 8.11175 11.4244 7.79049 11.6824 7.53807L12.9492 6.29894H12.6677C9.923 6.29894 7.59497 7.23425 5.68356 9.10489C3.77121 10.9746 2.81504 13.2519 2.81504 15.9367C2.81504 18.1625 3.50707 20.13 4.89112 21.8391C6.27518 23.5491 8.04631 24.6794 10.2045 25.2302C10.5095 25.299 10.7619 25.4596 10.9617 25.7121C11.1607 25.9645 11.2601 26.2398 11.2601 26.5381C11.2601 27.02 11.0903 27.3987 10.7506 27.674C10.41 27.9494 10.0051 28.0297 9.53593 27.915Z" fill="#666666"/>
</svg>
