<svg
  width="30"
  height="30"
  viewBox="0 0 30 30"
  fill="none"
  xmlns="http://www.w3.org/2000/svg"
>
    <path
    fill-rule="evenodd"
    clip-rule="evenodd"
    d="M8.75 18.75L26.25 18.75L26.25 21.25L8.75 21.25L8.75 18.75ZM8.75 13.75L26.25 13.75L26.25 16.25L8.75 16.25L8.75 13.75ZM26.25 8.75L8.75 8.75L8.75 11.25L26.25 11.25L26.25 8.75ZM3.75 8.75L6.25 8.75L6.25 11.25L3.75 11.25L3.75 8.75ZM6.25 21.25L6.25 18.75L3.75 18.75L3.75 21.25L6.25 21.25ZM3.75 13.75L6.25 13.75L6.25 16.25L3.75 16.25L3.75 13.75Z"
    fill="black"
    fill-opacity="0.54"
  />
    </svg>
