<svg width="26" height="24" viewBox="0 0 26 24" fill="none" xmlns="http://www.w3.org/2000/svg">
<path fill-rule="evenodd" clip-rule="evenodd" d="M2.77022 21.6448L22.9722 1.64478L23.6758 2.35543L12.3962 13.5222C14.4372 15.1712 15.7433 17.6839 15.7433 20.5001C15.7433 20.8379 15.7245 21.1716 15.6878 21.5001H23.324V22.5001H3.12199H1.90625L2.77022 21.6448ZM14.6808 21.5001H4.33773L11.6806 14.2306C13.5484 15.6975 14.7433 17.9615 14.7433 20.5001C14.7433 20.8389 14.722 21.1727 14.6808 21.5001Z" fill="#1E1E2D"/>
<path d="M22.9722 1.64478L22.4446 1.11179L22.9776 0.584129L23.5052 1.11712L22.9722 1.64478ZM2.77022 21.6448L3.29788 22.1778V22.1778L2.77022 21.6448ZM23.6758 2.35543L24.2088 1.82777L24.7364 2.36076L24.2034 2.88841L23.6758 2.35543ZM12.3962 13.5222L11.9249 14.1056L11.2729 13.5789L11.8685 12.9892L12.3962 13.5222ZM15.6878 21.5001V22.2501H14.8494L14.9424 21.4169L15.6878 21.5001ZM23.324 21.5001V20.7501H24.074V21.5001H23.324ZM23.324 22.5001H24.074V23.2501H23.324V22.5001ZM1.90625 22.5001V23.2501H0.0826454L1.37859 21.9671L1.90625 22.5001ZM14.6808 21.5001L15.4249 21.5938L15.3422 22.2501H14.6808V21.5001ZM4.33773 21.5001V22.2501H2.51412L3.81007 20.9671L4.33773 21.5001ZM11.6806 14.2306L11.153 13.6976L11.6233 13.232L12.1439 13.6408L11.6806 14.2306ZM23.4999 2.17776L3.29788 22.1778L2.24256 21.1118L22.4446 1.11179L23.4999 2.17776ZM23.1428 2.88309L22.4392 2.17243L23.5052 1.11712L24.2088 1.82777L23.1428 2.88309ZM11.8685 12.9892L23.1481 1.82244L24.2034 2.88841L12.9239 14.0552L11.8685 12.9892ZM14.9933 20.5001C14.9933 17.9217 13.7985 15.6194 11.9249 14.1056L12.8675 12.9388C15.0759 14.723 16.4933 17.4461 16.4933 20.5001H14.9933ZM14.9424 21.4169C14.976 21.116 14.9933 20.8101 14.9933 20.5001H16.4933C16.4933 20.8658 16.4729 21.2273 16.4331 21.5833L14.9424 21.4169ZM23.324 22.2501H15.6878V20.7501H23.324V22.2501ZM22.574 22.5001V21.5001H24.074V22.5001H22.574ZM3.12199 21.7501H23.324V23.2501H3.12199V21.7501ZM1.90625 21.7501H3.12199V23.2501H1.90625V21.7501ZM3.29788 22.1778L2.43391 23.0331L1.37859 21.9671L2.24256 21.1118L3.29788 22.1778ZM14.6808 22.2501H4.33773V20.7501H14.6808V22.2501ZM3.81007 20.9671L11.153 13.6976L12.2083 14.7636L4.86539 22.0331L3.81007 20.9671ZM12.1439 13.6408C14.1836 15.2427 15.4933 17.72 15.4933 20.5001H13.9933C13.9933 18.203 12.9132 16.1523 11.2174 14.8205L12.1439 13.6408ZM15.4933 20.5001C15.4933 20.8704 15.47 21.2354 15.4249 21.5938L13.9367 21.4064C13.974 21.11 13.9933 20.8075 13.9933 20.5001H15.4933Z" fill="#1E1E2D"/>
</svg>
