<svg width="34" height="46" viewBox="0 0 34 46" fill="none" xmlns="http://www.w3.org/2000/svg">
<path d="M16.1128 3.11744L9.16401 19.7892C8.92586 20.3606 9.46984 20.9475 10.231 20.9404L23.6305 20.8149C24.3716 20.808 24.8959 20.2397 24.6777 19.6799L18.227 3.13359C17.9087 2.31699 16.4511 2.30586 16.1128 3.11744Z" fill="#EA3636"/>
<path d="M17.8872 42.8824L24.836 26.2106C25.0741 25.6392 24.5302 25.0523 23.769 25.0594L10.3695 25.1849C9.62839 25.1919 9.10409 25.7601 9.32233 26.3199L15.773 42.8663C16.0913 43.6829 17.5489 43.694 17.8872 42.8824Z" fill="#3699FF"/>
<circle cx="17" cy="23" r="5" transform="rotate(-30 17 23)" fill="white"/>
<circle cx="17.0001" cy="23" r="3" transform="rotate(-30 17.0001 23)" fill="#DADADA"/>
</svg>
