<svg width="33" height="27" viewBox="0 0 33 27" fill="none" xmlns="http://www.w3.org/2000/svg">
<path fill-rule="evenodd" clip-rule="evenodd" d="M29.6249 0.375H3.37492C1.77075 0.375 0.458252 1.65833 0.458252 3.2625V23.7083C0.458252 25.3125 1.77075 26.625 3.37492 26.625H29.6249C31.2291 26.625 32.5416 25.3125 32.5416 23.7083V3.2625C32.5416 1.65833 31.2291 0.375 29.6249 0.375ZM15.9999 24H2.99988V3H29.9999L29.9999 13H17.9999C16.8953 13 15.9999 13.8954 15.9999 15V24ZM17.9999 24H29.9999L29.9999 15H17.9999V24Z" fill="white"/>
<path d="M2.99988 24H2.74988V24.25H2.99988V24ZM15.9999 24V24.25H16.2499V24H15.9999ZM2.99988 3V2.75H2.74988V3H2.99988ZM29.9999 3H30.2499V2.75H29.9999V3ZM29.9999 13V13.25H30.2499V13H29.9999ZM17.9999 24H17.7499V24.25H17.9999V24ZM29.9999 24V24.25H30.2499V24H29.9999ZM29.9999 15H30.2499V14.75H29.9999V15ZM17.9999 15V14.75H17.7499V15H17.9999ZM3.37492 0.625H29.6249V0.125H3.37492V0.625ZM0.708252 3.2625C0.708252 1.79967 1.90554 0.625 3.37492 0.625V0.125C1.63597 0.125 0.208252 1.517 0.208252 3.2625H0.708252ZM0.708252 23.7083V3.2625H0.208252V23.7083H0.708252ZM3.37492 26.375C1.90882 26.375 0.708252 25.1744 0.708252 23.7083H0.208252C0.208252 25.4506 1.63268 26.875 3.37492 26.875V26.375ZM29.6249 26.375H3.37492V26.875H29.6249V26.375ZM32.2916 23.7083C32.2916 25.1744 31.091 26.375 29.6249 26.375V26.875C31.3672 26.875 32.7916 25.4506 32.7916 23.7083H32.2916ZM32.2916 3.2625V23.7083H32.7916V3.2625H32.2916ZM29.6249 0.625C31.0943 0.625 32.2916 1.79967 32.2916 3.2625H32.7916C32.7916 1.517 31.3639 0.125 29.6249 0.125V0.625ZM2.99988 24.25H15.9999V23.75H2.99988V24.25ZM2.74988 3V24H3.24988V3H2.74988ZM29.9999 2.75H2.99988V3.25H29.9999V2.75ZM30.2499 13L30.2499 3H29.7499L29.7499 13H30.2499ZM17.9999 13.25H29.9999V12.75H17.9999V13.25ZM16.2499 15C16.2499 14.0335 17.0334 13.25 17.9999 13.25V12.75C16.7572 12.75 15.7499 13.7574 15.7499 15H16.2499ZM16.2499 24V15H15.7499V24H16.2499ZM17.9999 24.25H29.9999V23.75H17.9999V24.25ZM30.2499 24L30.2499 15H29.7499L29.7499 24H30.2499ZM29.9999 14.75H17.9999V15.25H29.9999V14.75ZM17.7499 15V24H18.2499V15H17.7499Z" fill="white"/>
</svg>
