<svg width="70" height="70" viewBox="0 0 70 70" fill="none" xmlns="http://www.w3.org/2000/svg">
<path d="M34.6059 67.7118C52.8898 67.7118 67.7118 52.8898 67.7118 34.6059C67.7118 16.322 52.8898 1.5 34.6059 1.5C16.322 1.5 1.5 16.322 1.5 34.6059C1.5 52.8898 16.322 67.7118 34.6059 67.7118Z" fill="url(#paint0_linear_821_901)" stroke="white" stroke-width="3"/>
<path fill-rule="evenodd" clip-rule="evenodd" d="M34.6059 63.6578C50.6508 63.6578 63.6578 50.6508 63.6578 34.6059C63.6578 18.561 50.6508 5.55401 34.6059 5.55401C18.561 5.55401 5.55401 18.561 5.55401 34.6059C5.55401 50.6508 18.561 63.6578 34.6059 63.6578ZM34.6059 66.2118C52.0614 66.2118 66.2118 52.0614 66.2118 34.6059C66.2118 17.1504 52.0614 3 34.6059 3C17.1504 3 3 17.1504 3 34.6059C3 52.0614 17.1504 66.2118 34.6059 66.2118Z" fill="#C19444"/>
<path d="M16.4084 34.606C16.4084 24.5559 24.5557 16.4087 34.6058 16.4087V16.4087C44.6559 16.4087 52.8031 24.5559 52.8031 34.606V34.606C52.8031 44.6561 44.6559 52.8034 34.6058 52.8034V52.8034C24.5557 52.8034 16.4084 44.6561 16.4084 34.606V34.606Z" fill="url(#paint1_linear_821_901)"/>
<g filter="url(#filter0_d_821_901)">
<path d="M22.8047 37.6514C22.8047 37.4229 22.7695 37.2178 22.6992 37.0361C22.6348 36.8486 22.5117 36.6787 22.3301 36.5264C22.1484 36.3682 21.8936 36.2129 21.5654 36.0605C21.2373 35.9082 20.8125 35.75 20.291 35.5859C19.7109 35.3984 19.1602 35.1875 18.6387 34.9531C18.123 34.7188 17.666 34.4463 17.2676 34.1357C16.875 33.8193 16.5645 33.4531 16.3359 33.0371C16.1133 32.6211 16.002 32.1377 16.002 31.5869C16.002 31.0537 16.1191 30.5703 16.3535 30.1367C16.5879 29.6973 16.916 29.3223 17.3379 29.0117C17.7598 28.6953 18.2578 28.4521 18.832 28.2822C19.4121 28.1123 20.0479 28.0273 20.7393 28.0273C21.6826 28.0273 22.5059 28.1973 23.209 28.5371C23.9121 28.877 24.457 29.3428 24.8438 29.9346C25.2363 30.5264 25.4326 31.2031 25.4326 31.9648H22.8135C22.8135 31.5898 22.7344 31.2617 22.5762 30.9805C22.4238 30.6934 22.1895 30.4678 21.873 30.3037C21.5625 30.1396 21.1699 30.0576 20.6953 30.0576C20.2383 30.0576 19.8574 30.1279 19.5527 30.2686C19.248 30.4033 19.0195 30.5879 18.8672 30.8223C18.7148 31.0508 18.6387 31.3086 18.6387 31.5957C18.6387 31.8125 18.6914 32.0088 18.7969 32.1846C18.9082 32.3604 19.0723 32.5244 19.2891 32.6768C19.5059 32.8291 19.7725 32.9727 20.0889 33.1074C20.4053 33.2422 20.7715 33.374 21.1875 33.5029C21.8848 33.7139 22.4971 33.9512 23.0244 34.2148C23.5576 34.4785 24.0029 34.7744 24.3604 35.1025C24.7178 35.4307 24.9873 35.8027 25.1689 36.2188C25.3506 36.6348 25.4414 37.1064 25.4414 37.6338C25.4414 38.1904 25.333 38.6885 25.1162 39.1279C24.8994 39.5674 24.5859 39.9395 24.1758 40.2441C23.7656 40.5488 23.2764 40.7803 22.708 40.9385C22.1396 41.0967 21.5039 41.1758 20.8008 41.1758C20.168 41.1758 19.5439 41.0938 18.9287 40.9297C18.3135 40.7598 17.7539 40.5049 17.25 40.165C16.752 39.8252 16.3535 39.3916 16.0547 38.8643C15.7559 38.3369 15.6064 37.7129 15.6064 36.9922H18.252C18.252 37.3906 18.3135 37.7275 18.4365 38.0029C18.5596 38.2783 18.7324 38.501 18.9551 38.6709C19.1836 38.8408 19.4531 38.9639 19.7637 39.04C20.0801 39.1162 20.4258 39.1543 20.8008 39.1543C21.2578 39.1543 21.6328 39.0898 21.9258 38.9609C22.2246 38.832 22.4443 38.6533 22.585 38.4248C22.7314 38.1963 22.8047 37.9385 22.8047 37.6514ZM32.2178 36.4385H28.957V34.3818H32.2178C32.7217 34.3818 33.1318 34.2998 33.4482 34.1357C33.7646 33.9658 33.9961 33.7314 34.1426 33.4326C34.2891 33.1338 34.3623 32.7969 34.3623 32.4219C34.3623 32.041 34.2891 31.6865 34.1426 31.3584C33.9961 31.0303 33.7646 30.7666 33.4482 30.5674C33.1318 30.3682 32.7217 30.2686 32.2178 30.2686H29.8711V41H27.2344V28.2031H32.2178C33.2197 28.2031 34.0781 28.3848 34.793 28.748C35.5137 29.1055 36.0645 29.6006 36.4453 30.2334C36.8262 30.8662 37.0166 31.5898 37.0166 32.4043C37.0166 33.2305 36.8262 33.9453 36.4453 34.5488C36.0645 35.1523 35.5137 35.6182 34.793 35.9463C34.0781 36.2744 33.2197 36.4385 32.2178 36.4385ZM40.04 28.2031H42.2725L45.5596 37.5986L48.8467 28.2031H51.0791L46.4561 41H44.6631L40.04 28.2031ZM38.8359 28.2031H41.0596L41.4639 37.3613V41H38.8359V28.2031ZM50.0596 28.2031H52.292V41H49.6553V37.3613L50.0596 28.2031Z" fill="#D93832"/>
</g>
<defs>
<filter id="filter0_d_821_901" x="13.6064" y="26.0273" width="40.6855" height="17.1484" filterUnits="userSpaceOnUse" color-interpolation-filters="sRGB">
<feFlood flood-opacity="0" result="BackgroundImageFix"/>
<feColorMatrix in="SourceAlpha" type="matrix" values="0 0 0 0 0 0 0 0 0 0 0 0 0 0 0 0 0 0 127 0" result="hardAlpha"/>
<feOffset/>
<feGaussianBlur stdDeviation="1"/>
<feComposite in2="hardAlpha" operator="out"/>
<feColorMatrix type="matrix" values="0 0 0 0 1 0 0 0 0 0 0 0 0 0 0 0 0 0 0.3 0"/>
<feBlend mode="normal" in2="BackgroundImageFix" result="effect1_dropShadow_821_901"/>
<feBlend mode="normal" in="SourceGraphic" in2="effect1_dropShadow_821_901" result="shape"/>
</filter>
<linearGradient id="paint0_linear_821_901" x1="16.7962" y1="9.77268" x2="52.6664" y2="57.7835" gradientUnits="userSpaceOnUse">
<stop stop-color="#FFD85F"/>
<stop offset="1" stop-color="#FFEEB8"/>
</linearGradient>
<linearGradient id="paint1_linear_821_901" x1="24.5221" y1="22.4654" x2="44.9405" y2="47.2986" gradientUnits="userSpaceOnUse">
<stop stop-color="#FFD960"/>
<stop offset="1" stop-color="#FFEFBB"/>
</linearGradient>
</defs>
</svg>
