<svg width="52" height="53" viewBox="0 0 52 53" fill="none" xmlns="http://www.w3.org/2000/svg">
<ellipse cx="13.5" cy="50.5" rx="8.5" ry="2.5" fill="#3C3C3C"/>
<path fill-rule="evenodd" clip-rule="evenodd" d="M44.5 24L19 50.5H7L41.5 24H44.5Z" fill="#3C3C3C"/>
<ellipse cx="43" cy="24" rx="3.5" ry="0.5" fill="#3C3C3C"/>
<path fill-rule="evenodd" clip-rule="evenodd" d="M42.7939 2C47.0936 2 50.5879 5.49429 50.5879 9.79394C50.5879 15.6394 42.7939 24.0828 42.7939 24.0828C42.7939 24.0828 35 15.6394 35 9.79394C35 5.49429 38.4943 2 42.7939 2ZM40.195 9.79391C40.195 8.36502 41.3641 7.19593 42.793 7.19593C44.2219 7.19593 45.391 8.36502 45.391 9.79391C45.391 11.2228 44.2349 12.3919 42.793 12.3919C41.3641 12.3919 40.195 11.2228 40.195 9.79391Z" fill="#EA3636"/>
<path fill-rule="evenodd" clip-rule="evenodd" d="M13.5 15C20.3958 15 26 20.6042 26 27.5C26 36.875 13.5 50.4167 13.5 50.4167C13.5 50.4167 1 36.875 1 27.5C1 20.6042 6.60417 15 13.5 15ZM9.33162 27.5002C9.33162 25.2085 11.2066 23.3335 13.4983 23.3335C15.79 23.3335 17.665 25.2085 17.665 27.5002C17.665 29.7919 15.8108 31.6669 13.4983 31.6669C11.2066 31.6669 9.33162 29.7919 9.33162 27.5002Z" fill="#EA3636"/>
</svg>
