<svg width="100" height="100" viewBox="0 0 100 100" fill="none" xmlns="http://www.w3.org/2000/svg">
<g id="gps_off_24px">
<path id="icon/device/gps_off_24px" fill-rule="evenodd" clip-rule="evenodd" d="M87.25 45.8333C85.3333 28.4583 71.5417 14.6666 54.1667 12.75V4.16663H45.8333V12.75C41.75 13.2083 37.875 14.3333 34.2917 16L40.6667 22.375C43.5833 21.375 46.75 20.8333 50 20.8333C66.125 20.8333 79.1667 33.875 79.1667 50C79.1667 53.2916 78.625 56.4166 77.625 59.3333L84 65.7083C85.6667 62.125 86.7917 58.25 87.25 54.1666H95.8333V45.8333H87.25ZM12.5 17.7916L21 26.2916C16.5417 31.75 13.5833 38.4583 12.75 45.8333H4.16667V54.1666H12.75C14.6667 71.5416 28.4583 85.3333 45.8333 87.25V95.8333H54.1667V87.25C61.5417 86.4166 68.25 83.4583 73.7083 79L82.2083 87.5L88.0833 81.625L18.375 11.9166L12.5 17.7916ZM50 79.1666C56.7083 79.1666 62.875 76.875 67.7917 73.0833L26.9167 32.2083C23.125 37.125 20.8333 43.2916 20.8333 50C20.8333 66.125 33.875 79.1666 50 79.1666Z" fill="#82686B"/>
</g>
</svg>
