<svg width="30" height="30" viewBox="0 0 30 30" fill="none" xmlns="http://www.w3.org/2000/svg">
<path fill-rule="evenodd" clip-rule="evenodd" d="M24.3777 15C24.3777 15.425 24.3402 15.825 24.2902 16.225L26.9277 18.2875C27.1652 18.475 27.2277 18.8125 27.0777 19.0875L24.5777 23.4125C24.4652 23.6125 24.2527 23.725 24.0402 23.725C23.9652 23.725 23.8902 23.7125 23.8152 23.6875L20.7027 22.4375C20.0527 22.925 19.3527 23.35 18.5902 23.6625L18.1152 26.975C18.0777 27.275 17.8152 27.5 17.5027 27.5H12.5027C12.1902 27.5 11.9277 27.275 11.8902 26.975L11.4152 23.6625C10.6527 23.35 9.95273 22.9375 9.30273 22.4375L6.19023 23.6875C6.12773 23.7125 6.05273 23.725 5.97773 23.725C5.75273 23.725 5.54023 23.6125 5.42773 23.4125L2.92773 19.0875C2.77773 18.8125 2.84023 18.475 3.07773 18.2875L5.71523 16.225C5.66523 15.825 5.62773 15.4125 5.62773 15C5.62773 14.5875 5.66523 14.175 5.71523 13.775L3.07773 11.7125C2.84023 11.525 2.76523 11.1875 2.92773 10.9125L5.42773 6.5875C5.54023 6.3875 5.75273 6.275 5.96523 6.275C6.04023 6.275 6.11523 6.2875 6.19023 6.3125L9.30273 7.5625C9.95273 7.075 10.6527 6.65 11.4152 6.3375L11.8902 3.025C11.9277 2.725 12.1902 2.5 12.5027 2.5H17.5027C17.8152 2.5 18.0777 2.725 18.1152 3.025L18.5902 6.3375C19.3527 6.65 20.0527 7.0625 20.7027 7.5625L23.8152 6.3125C23.8777 6.2875 23.9527 6.275 24.0277 6.275C24.2527 6.275 24.4652 6.3875 24.5777 6.5875L27.0777 10.9125C27.2277 11.1875 27.1652 11.525 26.9277 11.7125L24.2902 13.775C24.3402 14.175 24.3777 14.575 24.3777 15ZM10.0027 15C10.0027 12.2375 12.2402 10 15.0027 10C17.7652 10 20.0027 12.2375 20.0027 15C20.0027 17.7625 17.7652 20 15.0027 20C12.2402 20 10.0027 17.7625 10.0027 15Z" fill="#111111" fill-opacity="0.54"/>
</svg>
