<svg width="19" height="19" viewBox="0 0 19 19" fill="none" xmlns="http://www.w3.org/2000/svg">
<path d="M5.20349 2.99419C5.27578 2.87371 5.40599 2.79999 5.54649 2.79999H12.2935C12.434 2.79999 12.5642 2.87371 12.6365 2.99419L17.32 10.8H0.520015L5.20349 2.99419Z" fill="url(#paint0_linear_5709_203414)"/>
<path fill-rule="evenodd" clip-rule="evenodd" d="M5.77297 3.59999L1.93297 9.99999H15.9071L12.0671 3.59999H5.77297ZM12.6365 2.99419C12.5642 2.87371 12.434 2.79999 12.2935 2.79999H5.54649C5.40599 2.79999 5.27578 2.87371 5.20349 2.99419L0.520015 10.8H17.32L12.6365 2.99419Z" fill="#82686B"/>
<path fill-rule="evenodd" clip-rule="evenodd" d="M2.92412 10.8C3.04244 14.2234 5.68162 16.96 8.92001 16.96C12.1584 16.96 14.7976 14.2234 14.9159 10.8H2.92412Z" fill="url(#paint1_linear_5709_203414)"/>
<path fill-rule="evenodd" clip-rule="evenodd" d="M3.80902 11.6C4.2652 14.2289 6.41588 16.16 8.92001 16.16C11.4242 16.16 13.5748 14.2289 14.031 11.6H3.80902ZM2.99879 11.6C2.95871 11.3383 2.93349 11.0713 2.92412 10.8H14.9159C14.9065 11.0713 14.8813 11.3383 14.8412 11.6C14.3755 14.64 11.9018 16.96 8.92001 16.96C5.93827 16.96 3.46454 14.64 2.99879 11.6Z" fill="#82686B"/>
<path d="M5.03579 15.8315C4.9826 15.7252 5.05996 15.6 5.1789 15.6H12.6611C12.7801 15.6 12.8574 15.7252 12.8042 15.8315L12.3411 16.7578C12.2056 17.0288 11.9286 17.2 11.6256 17.2H6.21444C5.91142 17.2 5.63441 17.0288 5.4989 16.7578L5.03579 15.8315Z" fill="url(#paint2_linear_5709_203414)"/>
<path fill-rule="evenodd" clip-rule="evenodd" d="M4.78535 15.9568C4.63907 15.6642 4.85181 15.32 5.1789 15.32H12.6611C12.9882 15.32 13.201 15.6642 13.0547 15.9568L12.5916 16.883C12.4086 17.2489 12.0347 17.48 11.6256 17.48H6.21444C5.80537 17.48 5.4314 17.2489 5.24846 16.883L4.78535 15.9568ZM5.37306 15.88L5.74934 16.6325C5.83742 16.8087 6.01748 16.92 6.21444 16.92H11.6256C11.8225 16.92 12.0026 16.8087 12.0907 16.6325L12.467 15.88H5.37306Z" fill="#82686B"/>
<path d="M0.440034 10.56C0.440034 10.2507 0.690755 9.99999 1.00003 9.99999H16.92C17.2293 9.99999 17.48 10.2507 17.48 10.56V11.44C17.48 11.7493 17.2293 12 16.92 12H1.00004C0.690756 12 0.440034 11.7493 0.440034 11.44V10.56Z" fill="url(#paint3_linear_5709_203414)"/>
<path fill-rule="evenodd" clip-rule="evenodd" d="M0.160034 10.56C0.160034 10.0961 0.536115 9.71999 1.00003 9.71999H16.92C17.384 9.71999 17.76 10.0961 17.76 10.56V11.44C17.76 11.9039 17.384 12.28 16.92 12.28H1.00004C0.536117 12.28 0.160034 11.9039 0.160034 11.44V10.56ZM1.00003 10.28C0.845394 10.28 0.720034 10.4053 0.720034 10.56V11.44C0.720034 11.5946 0.845395 11.72 1.00004 11.72H16.92C17.0747 11.72 17.2 11.5946 17.2 11.44V10.56C17.2 10.4053 17.0747 10.28 16.92 10.28H1.00003Z" fill="#82686B"/>
<path d="M7.4 5.19999C7.4 4.75816 7.75817 4.39999 8.2 4.39999H9.8C10.2418 4.39999 10.6 4.75816 10.6 5.19999V8.39999C10.6 8.84182 10.2418 9.19999 9.8 9.19999H8.2C7.75817 9.19999 7.4 8.84182 7.4 8.39999V5.19999Z" fill="url(#paint4_linear_5709_203414)"/>
<line x1="17.4142" y1="1.41421" x2="1.41421" y2="17.4142" stroke="white" stroke-width="4"/>
<line x1="17.2071" y1="1.70711" x2="1.20711" y2="17.7071" stroke="#82686B" stroke-width="2"/>
<defs>
<linearGradient id="paint0_linear_5709_203414" x1="5.60765" y1="4.26799" x2="18.9785" y2="8.96556" gradientUnits="userSpaceOnUse">
<stop stop-color="#82686B"/>
<stop offset="1" stop-color="#B99C9F"/>
</linearGradient>
<linearGradient id="paint1_linear_5709_203414" x1="1.32815" y1="5.65973" x2="15.2531" y2="8.77821" gradientUnits="userSpaceOnUse">
<stop stop-color="#82686B"/>
<stop offset="1" stop-color="#B99C9F"/>
</linearGradient>
<linearGradient id="paint2_linear_5709_203414" x1="0.839812" y1="2.79998" x2="16.9734" y2="3.73325" gradientUnits="userSpaceOnUse">
<stop stop-color="#3C3C3C"/>
<stop offset="1" stop-color="#555454"/>
</linearGradient>
<linearGradient id="paint3_linear_5709_203414" x1="0.655789" y1="5.73597" x2="17.7528" y2="5.97068" gradientUnits="userSpaceOnUse">
<stop stop-color="#3C3C3C"/>
<stop offset="1" stop-color="#565555"/>
</linearGradient>
<linearGradient id="paint4_linear_5709_203414" x1="7.59201" y1="4.39999" x2="11.2638" y2="7.99019" gradientUnits="userSpaceOnUse">
<stop stop-color="#3C3C3C"/>
<stop offset="1" stop-color="#555454"/>
</linearGradient>
</defs>
</svg>
