<svg width="24" height="24" viewBox="0 0 24 24" fill="none" xmlns="http://www.w3.org/2000/svg">
<path d="M8.20349 4.99419C8.27578 4.87371 8.40599 4.79999 8.54649 4.79999H15.2935C15.434 4.79999 15.5642 4.87371 15.6365 4.99419L20.32 12.8H3.52001L8.20349 4.99419Z" fill="url(#paint0_linear_5406_75625)"/>
<path fill-rule="evenodd" clip-rule="evenodd" d="M8.77297 5.59999L4.93297 12H18.9071L15.0671 5.59999H8.77297ZM15.6365 4.99419C15.5642 4.87371 15.434 4.79999 15.2935 4.79999H8.54649C8.40599 4.79999 8.27578 4.87371 8.20349 4.99419L3.52001 12.8H20.32L15.6365 4.99419Z" fill="#C19444"/>
<path fill-rule="evenodd" clip-rule="evenodd" d="M5.92412 12.8C6.04244 16.2234 8.68162 18.96 11.92 18.96C15.1584 18.96 17.7976 16.2234 17.9159 12.8H5.92412Z" fill="url(#paint1_linear_5406_75625)"/>
<path fill-rule="evenodd" clip-rule="evenodd" d="M6.80902 13.6C7.2652 16.2289 9.41588 18.16 11.92 18.16C14.4242 18.16 16.5748 16.2289 17.031 13.6H6.80902ZM5.99879 13.6C5.95871 13.3383 5.93349 13.0713 5.92412 12.8H17.9159C17.9065 13.0713 17.8813 13.3383 17.8412 13.6C17.3755 16.64 14.9018 18.96 11.92 18.96C8.93827 18.96 6.46454 16.64 5.99879 13.6Z" fill="#C19444"/>
<path d="M8.03579 17.8315C7.9826 17.7252 8.05996 17.6 8.1789 17.6H15.6611C15.7801 17.6 15.8574 17.7252 15.8042 17.8315L15.3411 18.7578C15.2056 19.0288 14.9286 19.2 14.6256 19.2H9.21444C8.91142 19.2 8.63441 19.0288 8.4989 18.7578L8.03579 17.8315Z" fill="url(#paint2_linear_5406_75625)"/>
<path fill-rule="evenodd" clip-rule="evenodd" d="M7.78535 17.9568C7.63907 17.6642 7.85181 17.32 8.1789 17.32H15.6611C15.9882 17.32 16.201 17.6642 16.0547 17.9568L15.5916 18.883C15.4086 19.2489 15.0347 19.48 14.6256 19.48H9.21444C8.80537 19.48 8.4314 19.2489 8.24846 18.883L7.78535 17.9568ZM8.37306 17.88L8.74934 18.6325C8.83742 18.8087 9.01748 18.92 9.21444 18.92H14.6256C14.8225 18.92 15.0026 18.8087 15.0907 18.6325L15.467 17.88H8.37306Z" fill="#C19444"/>
<path d="M3.44003 12.56C3.44003 12.2507 3.69075 12 4.00003 12H19.92C20.2293 12 20.48 12.2507 20.48 12.56V13.44C20.48 13.7493 20.2293 14 19.92 14H4.00004C3.69076 14 3.44003 13.7493 3.44003 13.44V12.56Z" fill="url(#paint3_linear_5406_75625)"/>
<path fill-rule="evenodd" clip-rule="evenodd" d="M3.16003 12.56C3.16003 12.0961 3.53611 11.72 4.00003 11.72H19.92C20.384 11.72 20.76 12.0961 20.76 12.56V13.44C20.76 13.9039 20.384 14.28 19.92 14.28H4.00004C3.53612 14.28 3.16003 13.9039 3.16003 13.44V12.56ZM4.00003 12.28C3.84539 12.28 3.72003 12.4053 3.72003 12.56V13.44C3.72003 13.5946 3.84539 13.72 4.00004 13.72H19.92C20.0747 13.72 20.2 13.5946 20.2 13.44V12.56C20.2 12.4053 20.0747 12.28 19.92 12.28H4.00003Z" fill="#C19444"/>
<path d="M10.4 7.19999C10.4 6.75816 10.7582 6.39999 11.2 6.39999H12.8C13.2418 6.39999 13.6 6.75816 13.6 7.19999V10.4C13.6 10.8418 13.2418 11.2 12.8 11.2H11.2C10.7582 11.2 10.4 10.8418 10.4 10.4V7.19999Z" fill="url(#paint4_linear_5406_75625)"/>
<defs>
<linearGradient id="paint0_linear_5406_75625" x1="8.60765" y1="6.26799" x2="21.9785" y2="10.9656" gradientUnits="userSpaceOnUse">
<stop stop-color="#FFDC6A"/>
<stop offset="1" stop-color="#FFEAA8"/>
</linearGradient>
<linearGradient id="paint1_linear_5406_75625" x1="4.32815" y1="7.65973" x2="18.2531" y2="10.7782" gradientUnits="userSpaceOnUse">
<stop stop-color="#FFDA62"/>
<stop offset="1" stop-color="#FFEAA8"/>
</linearGradient>
<linearGradient id="paint2_linear_5406_75625" x1="3.83981" y1="4.79998" x2="19.9734" y2="5.73325" gradientUnits="userSpaceOnUse">
<stop stop-color="#3C3C3C"/>
<stop offset="1" stop-color="#555454"/>
</linearGradient>
<linearGradient id="paint3_linear_5406_75625" x1="3.65579" y1="7.73597" x2="20.7528" y2="7.97068" gradientUnits="userSpaceOnUse">
<stop stop-color="#3C3C3C"/>
<stop offset="1" stop-color="#565555"/>
</linearGradient>
<linearGradient id="paint4_linear_5406_75625" x1="10.592" y1="6.39999" x2="14.2638" y2="9.99019" gradientUnits="userSpaceOnUse">
<stop stop-color="#3C3C3C"/>
<stop offset="1" stop-color="#555454"/>
</linearGradient>
</defs>
</svg>
