<svg width="25" height="25" viewBox="0 0 25 25" fill="none" xmlns="http://www.w3.org/2000/svg">
<path fill-rule="evenodd" clip-rule="evenodd" d="M16.3235 15.3492H17.4075L24.2549 22.2103L22.2103 24.2549L15.3492 17.4075V16.3235L14.9787 15.9393C13.4144 17.284 11.3835 18.0936 9.17427 18.0936C4.24802 18.0936 0.254883 14.1005 0.254883 9.17427C0.254883 4.24802 4.24802 0.254883 9.17427 0.254883C14.1005 0.254883 18.0936 4.24802 18.0936 9.17427C18.0936 11.3835 17.284 13.4144 15.9393 14.9787L16.3235 15.3492ZM2.99927 9.17437C2.99927 12.5912 5.75742 15.3493 9.17422 15.3493C12.591 15.3493 15.3492 12.5912 15.3492 9.17437C15.3492 5.75756 12.591 2.99941 9.17422 2.99941C5.75742 2.99941 2.99927 5.75756 2.99927 9.17437Z" fill="white"/>
</svg>
